<svg xmlns="http://www.w3.org/2000/svg" 
viewBox="0 0 64 64"><g data-name="katman 1" 
shape-rendering="crispEdges">
<path fill="#30f" d="M0 0h64v64H0z"/>
<path stroke="#fff" 
d="M15 1.5h7m2 0h7m-16 1h7m2 0h5m-15 1h8m2 0h9m-19 1h8m1 0h9m29 0h3m-50 1h8m1 0h9m1 0h2m23 0h4m-48 1h8m1 0h8m24 0h3m-44 1h2m1 0h5m1 0h6m1 0h3m1 0h6m14 0h10m-50 1h2m1 0h5m1 0h5m2 0h10m2 0h1m10 0h11m-50 1h2m1 0h5m1 0h2m1 0h2m2 0h2m1 0h10m4 0h3m3 0h11m-50 1h2m1 0h5m1 0h2m1 0h2m2 0h1m4 0h14m2 0h7m1 0h5m-51 1h3m2 0h3m2 0h2m1 0h2m10 0h10m3 0h7m-45 1h4m1 0h3m2 0h2m2 0h1m10 0h3m1 0h5m4 0h7m-46 1h5m1 0h3m2 0h2m18 0h1m8 0h2m-42 1h4m2 0h3m2 0h2m-13 1h4m2 0h3m2 0h1m-12 1h4m2 0h3m2 0h1m-12 1h4m2 0h3m2 0h1m-12 1h4m2 0h3m2 0h1m-12 1h4m2 0h3m2 0h1m-12 1h4m2 0h3m7 0h36m-52 1h3m3 0h3m6 0h5m3 0h24m3 0h2m-52 1h3m1 0h3m1 0h1m6 0h3m9 0h17m-46 1h4m2 0h2m2 0h2m17 0h16m-45 1h4m2 0h2m2 0h2m18 0h14m-44 1h4m2 0h2m1 0h2m7 0h4m1 0h1m6 0h14m4 0h1m-50 1h5m1 0h3m1 0h2m8 0h3m1 0h1m3 0h1m2 0h14m2 0h1m1 0h1m-50 1h5m1 0h2m1 0h3m7 0h4m5 0h2m1 0h14m1 0h2m5 0h1m-54 1h4m1 0h1m3 0h2m6 0h2m1 0h4m3 0h3m1 0h14m1 0h3m3 0h2m-54 1h4m1 0h2m1 0h2m2 0h1m4 0h2m1 0h35m-55 1h4m1 0h1m1 0h2m3 0h2m3 0h3m2 0h33m-55 1h4m1 0h1m1 0h1m10 0h4m1 0h32m-54 1h3m1 0h1m12 0h4m2 0h31m-54 1h3m1 0h1m1 0h2m10 0h3m1 0h32m-54 1h3m6 0h5m5 0h1m2 0h32m-54 1h4m5 0h6m7 0h32m-55 1h5m6 0h6m8 0h30m-55 1h5m8 0h4m6 0h32m-55 1h2m3 0h2m7 0h2m4 0h1m1 0h18m2 0h13m-56 1h3m1 0h1m1 0h2m13 0h16m2 0h1m3 0h13m-56 1h2m2 0h4m14 0h34m-56 1h2m2 0h2m16 0h34m-57 1h3m2 0h2m1 0h1m14 0h34m-54 1h2m2 0h2m14 0h16m4 0h13m-56 1h1m2 0h2m2 0h2m14 0h14m8 0h11m-57 1h2m1 0h3m2 0h1m5 0h2m9 0h12m3 0h4m3 0h9m-56 1h2m1 0h2m2 0h1m6 0h2m9 0h11m12 0h8m-56 1h2m1 0h2m2 0h1m6 0h2m9 0h11m12 0h8m-56 1h2m4 0h2m6 0h2m10 0h11m10 0h8m-54 1h2m2 0h1m1 0h1m20 0h10m2 0h4m2 0h8m-52 1h1m1 0h3m21 0h11m6 0h8m-51 1h1m2 0h4m20 0h23m-47 1h4m21 0h21m-48 1h1m3 0h2m23 0h18m-47 1h2m3 0h1m25 0h14m-45 1h3m2 0h1m22 0h1m3 0h11m-43 1h4m1 0h1m21 0h3m4 0h8m-42 1h4m1 0h1m21 0h4m-31 1h4m23 0h5m-31 1h3m23 0h6m-32 1h3m23 0h7m-33 1h4m21 0h9m-34 1h4m21 0h10m-33 1h2m21 0h11"
/></g></svg>