<svg width="112" height="112" viewBox="0 0 112 112" fill="none" xmlns="http://www.w3.org/2000/svg">
<path d="M106.856 57.04C108.593 57.04 110.309 57.1284 112 57.3018C111.318 87.2106 87.196 111.329 57.2852 112.002C57.1128 110.316 57.0254 108.605 57.0254 106.873C57.0254 79.3511 79.3355 57.04 106.856 57.04ZM5.11621 57.04C32.6371 57.0401 54.9472 79.3511 54.9473 106.873C54.9473 108.604 54.8579 110.315 54.6855 112.001C24.7873 111.313 0.679802 87.1993 0 57.2988C1.68202 57.1273 3.38891 57.04 5.11621 57.04ZM54.6855 0C54.8579 1.68617 54.9473 3.39721 54.9473 5.12891C54.9472 32.6509 32.6371 54.9619 5.11621 54.9619C3.38885 54.9619 1.68208 54.8727 0 54.7012C0.680807 24.8016 24.7879 0.688443 54.6855 0ZM57.2852 0C87.1954 0.673345 111.317 24.7903 112 54.6982C110.309 54.8717 108.593 54.9619 106.856 54.9619C79.3355 54.9619 57.0254 32.6509 57.0254 5.12891C57.0254 3.39728 57.1128 1.68611 57.2852 0Z" fill="currentColor"/>
</svg>
