<?xml version="1.0" encoding="UTF-8"?>
<svg id="katman_1" data-name="katman 1" xmlns="http://www.w3.org/2000/svg" viewBox="0 0 829.15 725.34">
  <path d="M0,207.77l103.51-.21.21,103.51-103.51.21-.21-103.51ZM.84,621.83l310.54-.63-.21-103.51-103.51.21-.21-103.51,207.03-.42.42,207.03,414.05-.84.21,103.51-828.1,1.68-.21-103.51ZM103.72,311.08l103.51-.21.21,103.51-103.51.21-.21-103.51ZM621.5,413.54l-207.03.42-.21-103.51,207.03-.42.21,103.51ZM621.08,206.52l207.03-.42.21,103.51-207.03.42-.21-103.51Z" fill="#9ae29b"/>
  <rect x="103.73" y="103.87" width="103.51" height="103.5" fill="#9ae29b"/>
  <rect x="207.23" y="207.37" width="103.51" height="103.5" fill="#9ae29b"/>
  <g>
    <rect x="414.14" y=".31" width="103.51" height="103.5" fill="#9ae29b"/>
    <rect x="621.27" width="103.51" height="103.5" fill="#9ae29b"/>
  </g>
  <rect x="517.76" y="103.5" width="103.51" height="103.5" fill="#9ae29b"/>
</svg>