<svg width="530" height="112" viewBox="0 0 530 112" fill="none" xmlns="http://www.w3.org/2000/svg">
<path d="M159.401 24C165.948 24.0002 171.136 25.5128 174.793 28.7041C178.497 31.8182 180.354 35.912 180.354 40.8828C180.354 43.4906 179.82 45.8223 178.713 47.8379L178.701 47.8594L178.688 47.8818L178.684 47.8877C177.626 49.7363 176.295 51.2752 174.693 52.4922L174.678 52.5107L174.64 52.5381C173.896 53.0902 173.149 53.5689 172.408 53.9834C175.251 55.4279 177.589 57.4269 179.396 59.9863C181.659 63.1302 182.8 66.6308 182.8 70.4551C182.799 76.2895 180.736 81.1006 176.597 84.7881C172.443 88.4874 166.66 90.2624 159.401 90.2627C152.142 90.2627 146.355 88.4878 142.201 84.7881C138.062 81.1006 136 76.289 136 70.4551C136 66.6294 137.143 63.1269 139.408 59.9824C141.256 57.4383 143.59 55.4412 146.392 53.9971C145.634 53.583 144.863 53.1038 144.087 52.5518L144.067 52.54L144.055 52.5303L144.041 52.5205C142.475 51.2899 141.161 49.7253 140.095 47.8516L140.087 47.8379C138.979 45.8223 138.446 43.4906 138.445 40.8828C138.445 36.2296 140.045 32.3374 143.253 29.2979L143.265 29.2861L143.9 28.7139L143.912 28.7041C147.63 25.5149 152.847 24 159.401 24ZM211.839 24.6094C216.898 24.6094 221.144 25.9952 224.577 28.7656C228.07 31.5359 230.72 35.39 232.526 40.3281C234.333 45.2064 235.237 50.8081 235.237 57.1318C235.237 63.3953 234.333 68.9961 232.526 73.9346C230.72 78.8128 228.07 82.6674 224.577 85.498C221.144 88.2684 216.898 89.6533 211.839 89.6533C206.78 89.6533 202.504 88.2684 199.011 85.498C195.518 82.6674 192.868 78.8128 191.062 73.9346C189.315 68.9961 188.441 63.3953 188.441 57.1318C188.441 50.8081 189.315 45.2064 191.062 40.3281C192.868 35.39 195.518 31.5359 199.011 28.7656C202.504 25.9953 206.78 24.6094 211.839 24.6094ZM264.994 24.6094C270.053 24.6094 274.299 25.9952 277.731 28.7656C281.224 31.5359 283.875 35.3898 285.682 40.3281C287.488 45.2064 288.392 50.8081 288.392 57.1318C288.392 63.3952 287.488 68.9961 285.682 73.9346C283.875 78.8129 281.225 82.6674 277.731 85.498C274.299 88.2683 270.053 89.6533 264.994 89.6533C259.935 89.6533 255.659 88.2684 252.166 85.498C248.673 82.6674 246.023 78.8129 244.216 73.9346C242.469 68.9961 241.597 63.3952 241.597 57.1318C241.597 50.8081 242.469 45.2064 244.216 40.3281C246.023 35.3898 248.673 31.536 252.166 28.7656C255.659 25.9952 259.935 24.6094 264.994 24.6094ZM364.029 40.1475C365.776 40.1475 367.613 40.3883 369.54 40.8701C371.467 41.2917 373.334 41.9847 375.141 42.9482C376.947 43.9118 378.514 45.1764 379.839 46.7422C380.441 47.5251 380.772 48.459 380.832 49.543C380.952 50.627 380.471 51.5904 379.387 52.4336C378.664 53.0358 377.791 53.3072 376.768 53.2471C375.744 53.1868 374.9 52.8552 374.237 52.2529C373.093 50.8078 371.618 49.694 369.812 48.9111C368.005 48.068 365.957 47.6455 363.668 47.6455C362.524 47.6455 361.319 47.8262 360.055 48.1875C358.85 48.4886 357.827 49.0613 356.983 49.9043C356.14 50.7475 355.718 51.9823 355.718 53.6084C355.718 55.114 356.2 56.3183 357.164 57.2217C358.188 58.125 359.513 58.8782 361.139 59.4805C362.765 60.0827 364.542 60.6247 366.469 61.1064C368.336 61.5882 370.173 62.1608 371.979 62.8232C373.846 63.4857 375.503 64.3584 376.948 65.4424C378.454 66.4662 379.658 67.8216 380.562 69.5078C381.525 71.1339 382.007 73.2118 382.007 75.7412C382.007 78.6923 381.133 81.2222 379.387 83.3301C377.7 85.3776 375.533 86.9433 372.883 88.0273C370.293 89.1114 367.553 89.6533 364.662 89.6533C361.229 89.6533 357.796 89.0512 354.363 87.8467C350.991 86.582 348.13 84.4141 345.781 81.3428C345.239 80.4996 344.998 79.5352 345.059 78.4512C345.119 77.3071 345.751 76.3434 346.955 75.5605C347.798 75.0185 348.672 74.8083 349.575 74.9287C350.539 74.9889 351.442 75.4402 352.285 76.2832C353.971 78.1502 355.839 79.6259 357.887 80.71C359.995 81.7939 362.524 82.3359 365.475 82.3359C366.679 82.2757 367.914 82.0951 369.179 81.7939C370.443 81.4326 371.527 80.8304 372.431 79.9873C373.334 79.0839 373.786 77.7889 373.786 76.1025C373.786 74.5971 373.304 73.3926 372.341 72.4893C371.377 71.5859 370.112 70.8633 368.546 70.3213C366.98 69.7191 365.294 69.1771 363.487 68.6953C361.56 68.1533 359.603 67.5502 357.615 66.8877C355.688 66.2252 353.942 65.3822 352.376 64.3584C350.81 63.2743 349.515 61.8894 348.491 60.2031C347.528 58.5168 347.046 56.439 347.046 53.9697C347.046 51.1391 347.829 48.7 349.395 46.6523C351.021 44.6047 353.098 43.0086 355.628 41.8643C358.218 40.72 361.018 40.1475 364.029 40.1475ZM410.965 40.1475C414.217 40.1475 417.108 40.5087 419.638 41.2314C422.167 41.8939 424.125 42.8583 425.51 44.123C426.955 45.3275 427.678 46.7431 427.678 48.3691C427.678 49.3928 427.377 50.3565 426.774 51.2598C426.172 52.1028 425.269 52.5243 424.064 52.5244C423.221 52.5244 422.499 52.3733 421.896 52.0723C421.354 51.7711 420.842 51.4099 420.36 50.9883C419.879 50.5667 419.276 50.1452 418.554 49.7236C417.891 49.3623 416.897 49.0612 415.572 48.8203C414.308 48.5794 413.163 48.459 412.14 48.459C408.948 48.459 406.177 49.1815 403.828 50.627C401.54 52.0723 399.733 54.0299 398.408 56.499C397.143 58.9682 396.511 61.7688 396.511 64.9004C396.511 68.0321 397.143 70.8335 398.408 73.3027C399.733 75.7718 401.51 77.7285 403.738 79.1738C406.027 80.6192 408.676 81.3427 411.688 81.3428C413.494 81.3428 414.97 81.2223 416.114 80.9814C417.259 80.6803 418.253 80.319 419.096 79.8975C419.999 79.3554 420.751 78.8125 421.354 78.2705C422.016 77.6682 422.92 77.3672 424.064 77.3672C425.389 77.3673 426.382 77.789 427.045 78.6318C427.768 79.4147 428.129 80.4088 428.129 81.6133C428.129 82.9382 427.316 84.2333 425.69 85.498C424.125 86.7026 422.016 87.6966 419.366 88.4795C416.716 89.2624 413.795 89.6533 410.604 89.6533C405.906 89.6533 401.81 88.5695 398.317 86.4014C394.885 84.2332 392.205 81.2818 390.277 77.5479C388.41 73.8139 387.477 69.5979 387.477 64.9004C387.477 60.1427 388.471 55.9266 390.458 52.2529C392.445 48.519 395.216 45.5685 398.77 43.4004C402.323 41.2323 406.388 40.1475 410.965 40.1475ZM454.195 40.1475C456.785 40.1475 459.164 40.5691 461.332 41.4121C463.56 42.2553 465.488 43.3401 467.114 44.665C467.978 45.3686 468.73 46.098 469.373 46.8525V45.1162C469.373 43.8516 469.795 42.7676 470.638 41.8643C471.541 40.961 472.625 40.5088 473.89 40.5088C475.215 40.5088 476.298 40.9609 477.142 41.8643C477.985 42.7074 478.406 43.7913 478.406 45.1162V84.1426C478.406 85.4676 477.985 86.582 477.142 87.4854C476.298 88.3285 475.215 88.75 473.89 88.75C472.625 88.75 471.541 88.3285 470.638 87.4854C469.795 86.582 469.373 85.4676 469.373 84.1426V82.3027C468.592 83.3563 467.6 84.3925 466.392 85.4072C464.886 86.6117 463.109 87.6363 461.062 88.4795C459.014 89.2624 456.816 89.6533 454.467 89.6533C450.311 89.6533 446.577 88.6 443.265 86.4922C439.952 84.3241 437.332 81.3726 435.405 77.6387C433.478 73.9047 432.515 69.6582 432.515 64.9004C432.515 60.0222 433.478 55.746 435.405 52.0723C437.332 48.3384 439.923 45.4174 443.175 43.3096C446.487 41.2019 450.16 40.1475 454.195 40.1475ZM325.286 25.5127C326.611 25.5127 327.695 25.9648 328.538 26.8682C329.381 27.7113 329.803 28.7952 329.803 30.1201V62.4619H335.313C336.518 62.4619 337.512 62.8834 338.295 63.7266C339.138 64.5094 339.559 65.5028 339.56 66.707C339.56 67.8513 339.138 68.8157 338.295 69.5986C337.512 70.3815 336.518 70.7725 335.313 70.7725H329.803V84.1426C329.803 85.4675 329.352 86.582 328.448 87.4854C327.545 88.3285 326.46 88.75 325.195 88.75C323.931 88.7499 322.877 88.3283 322.034 87.4854C321.191 86.582 320.77 85.4676 320.77 84.1426V70.7725H296.197C295.113 70.7725 294.089 70.351 293.125 69.5078C292.162 68.6045 291.68 67.5501 291.68 66.3457C291.68 65.2015 292.072 64.1777 292.854 63.2744L321.582 27.3193C322.004 26.7172 322.546 26.266 323.208 25.9648C323.87 25.6637 324.563 25.5127 325.286 25.5127ZM513.739 40.1475C518.015 40.1475 521.327 41.0517 523.676 42.8584C526.025 44.605 527.651 46.9838 528.555 49.9951C529.518 52.946 530 56.2582 530 59.9316V84.1426C530 85.4676 529.548 86.582 528.645 87.4854C527.801 88.3284 526.748 88.7499 525.483 88.75C524.158 88.75 523.074 88.3285 522.23 87.4854C521.387 86.582 520.966 85.4674 520.966 84.1426V60.0225C520.966 57.8543 520.665 55.9266 520.062 54.2402C519.498 52.603 518.536 51.2834 517.178 50.2812L516.623 49.8887C515.197 48.9357 513.242 48.459 510.758 48.459C508.289 48.459 506.12 49.0009 504.253 50.085C502.386 51.1087 500.911 52.494 499.827 54.2402C498.803 55.9266 498.291 57.8543 498.291 60.0225V84.1426C498.291 85.4676 497.839 86.582 496.936 87.4854C496.092 88.3284 495.039 88.7499 493.774 88.75C492.449 88.75 491.365 88.3285 490.521 87.4854C489.678 86.582 489.257 85.4674 489.257 84.1426V45.8389C489.257 44.5141 489.678 43.43 490.521 42.5869C491.365 41.6835 492.449 41.2314 493.774 41.2314C495.039 41.2315 496.092 41.6838 496.936 42.5869C497.839 43.43 498.291 44.514 498.291 45.8389V48.5732C498.462 48.3248 498.641 48.0746 498.833 47.8262C499.917 46.4411 501.212 45.1764 502.718 44.0322C504.223 42.8278 505.909 41.8939 507.776 41.2314C509.643 40.5087 511.631 40.1475 513.739 40.1475ZM455.461 48.459C452.691 48.459 450.221 49.1816 448.053 50.627C445.945 52.0723 444.259 54.0299 442.994 56.499C441.79 58.9682 441.187 61.7688 441.187 64.9004C441.187 67.9719 441.79 70.7732 442.994 73.3027C444.259 75.7717 445.945 77.7285 448.053 79.1738C450.221 80.6193 452.691 81.3428 455.461 81.3428C458.291 81.3427 460.791 80.6192 462.959 79.1738C465.127 77.7285 466.813 75.7716 468.018 73.3027C469.222 70.7732 469.824 67.9719 469.824 64.9004C469.824 61.7688 469.222 58.9682 468.018 56.499C466.813 54.0299 465.127 52.0723 462.959 50.627C460.791 49.1816 458.291 48.4591 455.461 48.459ZM159.401 58.6104C156.778 58.6104 154.387 59.0907 152.216 60.0332C150.068 60.9657 148.381 62.321 147.124 64.0986L147.114 64.1123C145.893 65.7845 145.256 67.8473 145.256 70.3594C145.256 73.6863 146.491 76.2926 148.974 78.2793C151.485 80.2258 154.926 81.2568 159.401 81.2568C163.875 81.2566 167.313 80.2253 169.824 78.2793C172.307 76.2926 173.542 73.6865 173.542 70.3594C173.542 67.8625 172.914 65.8109 171.708 64.1445L171.704 64.1406L171.674 64.0986C170.42 62.3257 168.74 60.9731 166.601 60.041L166.573 60.0293C164.475 59.0929 162.091 58.6105 159.401 58.6104ZM211.839 33.6436C209.008 33.6436 206.569 34.5468 204.521 36.3535C202.474 38.1603 200.908 40.8106 199.824 44.3037C198.74 47.7968 198.198 52.0729 198.198 57.1318C198.198 62.1304 198.74 66.3761 199.824 69.8691C200.908 73.3622 202.474 76.0126 204.521 77.8193C206.569 79.6261 209.008 80.5293 211.839 80.5293C214.669 80.5293 217.079 79.6261 219.066 77.8193C221.114 76.0126 222.68 73.3622 223.764 69.8691C224.908 66.3761 225.48 62.1304 225.48 57.1318C225.48 52.0729 224.908 47.7968 223.764 44.3037C222.68 40.8106 221.114 38.1603 219.066 36.3535C217.079 34.5467 214.669 33.6436 211.839 33.6436ZM264.994 33.6436C262.164 33.6436 259.724 34.5468 257.677 36.3535C255.629 38.1603 254.063 40.8106 252.979 44.3037C251.895 47.7968 251.353 52.073 251.353 57.1318C251.353 62.1303 251.895 66.3762 252.979 69.8691C254.063 73.3623 255.629 76.0126 257.677 77.8193C259.724 79.6261 262.164 80.5293 264.994 80.5293C267.825 80.5293 270.233 79.6259 272.221 77.8193C274.268 76.0126 275.835 73.3623 276.919 69.8691C278.063 66.3761 278.635 62.1304 278.635 57.1318C278.635 52.073 278.063 47.7968 276.919 44.3037C275.835 40.8106 274.268 38.1603 272.221 36.3535C270.233 34.547 267.825 33.6436 264.994 33.6436ZM303.801 62.4619H320.77V40.7793L303.801 62.4619ZM159.401 33.0059C155.793 33.0059 152.952 33.79 150.8 35.2686C148.724 36.6951 147.701 38.6516 147.701 41.2578C147.701 43.2965 148.287 44.8789 149.391 46.0928C150.573 47.3931 152.043 48.3592 153.815 48.9951C155.72 49.5915 157.582 49.8887 159.401 49.8887C161.22 49.8885 163.045 49.5938 164.88 49.001C166.726 48.3631 168.226 47.3898 169.407 46.0908C170.511 44.877 171.096 43.2962 171.097 41.2578C171.096 38.6514 170.074 36.6951 167.998 35.2686C165.846 33.7905 163.008 33.0061 159.401 33.0059Z" fill="#D9CEF6"/>
<path d="M106.856 57.04C108.593 57.04 110.309 57.1284 112 57.3018C111.318 87.2106 87.196 111.329 57.2852 112.002C57.1128 110.316 57.0254 108.605 57.0254 106.873C57.0254 79.3511 79.3355 57.04 106.856 57.04ZM5.11621 57.04C32.6371 57.0401 54.9472 79.3511 54.9473 106.873C54.9473 108.604 54.8579 110.315 54.6855 112.001C24.7873 111.313 0.679802 87.1993 0 57.2988C1.68202 57.1273 3.38891 57.04 5.11621 57.04ZM54.6855 0C54.8579 1.68617 54.9473 3.39721 54.9473 5.12891C54.9472 32.6509 32.6371 54.9619 5.11621 54.9619C3.38885 54.9619 1.68208 54.8727 0 54.7012C0.680807 24.8016 24.7879 0.688443 54.6855 0ZM57.2852 0C87.1954 0.673345 111.317 24.7903 112 54.6982C110.309 54.8717 108.593 54.9619 106.856 54.9619C79.3355 54.9619 57.0254 32.6509 57.0254 5.12891C57.0254 3.39728 57.1128 1.68611 57.2852 0Z" fill="url(#paint0_linear_161_1061)"/>
<defs>
<linearGradient id="paint0_linear_161_1061" x1="112.016" y1="-0.0162116" x2="-16.6821" y2="87.5137" gradientUnits="userSpaceOnUse">
<stop offset="0.146649" stop-color="#A485FF"/>
<stop offset="1" stop-color="#8F74DF"/>
</linearGradient>
</defs>
</svg>
